# WaveFront *.obj file (generated by Cinema 4D)

mtllib ./Obelisco.mtl

v -340 -24.04739379882812 340
v -171.46134948730469 6387.34130859375 171.46134948730469
v -22.90036010742188 6725.95263671875 22.90036010742188
v 340 -24.04739379882812 340
v 171.46134948730469 6387.34130859375 171.46134948730469
v 22.90036010742188 6725.95263671875 22.90036010742188
v 340 -24.04739379882812 -340
v 171.46134948730469 6387.34130859375 -171.46134948730469
v 22.90036010742188 6725.95263671875 -22.90036010742188
v -340 -24.04739379882812 -340
v -171.46134948730469 6387.34130859375 -171.46134948730469
v -22.90036010742188 6725.95263671875 -22.90036010742188
v 32.41282653808594 6481.01708984375 130.36233520507812
v 32.41282653808594 6406.43701171875 163.08328247070312
v -32.41282653808594 6481.01708984375 130.36233520507812
v -32.41282653808594 6406.43701171875 163.08328247070312
v 130.36233520507812 6481.01708984375 -32.41282653808594
v 163.08328247070312 6406.43701171875 -32.41282653808594
v 130.36233520507812 6481.01708984375 32.41282653808594
v 163.08328247070312 6406.43701171875 32.41282653808594
v 32.41282653808594 6481.01708984375 -130.36233520507812
v 32.41282653808594 6406.43701171875 -163.08328247070312
v -32.41282653808594 6481.01708984375 -130.36233520507812
v -32.41282653808594 6406.43701171875 -163.08328247070312
v -130.36233520507812 6481.01708984375 -32.41282653808594
v -163.08328247070312 6406.43701171875 -32.41282653808594
v -130.36233520507812 6481.01708984375 32.41282653808594
v -163.08328247070312 6406.43701171875 32.41282653808594
# 28 vertices

vn 0 0.02627830952406 0.99965465068817
vn 0.00000034172632 0.31226101517677 0.94999635219574
vn -0.00000025957334 0.3122610449791 0.94999635219574
vn 0.00000044926719 0.40176841616631 0.91574132442474
vn 0.00000032338127 0.40177041292191 0.91574043035507
vn 0 -1 0
vn -0.0000003260761 0.40177041292191 0.91574043035507
vn 0.00000010980297 0.40176844596863 0.91574132442474
vn 0 0 0
vn -0.00000034126077 0.40176844596863 0.91574132442474
vn -0.00000037162999 0.40176847577095 0.9157412648201
vn 0.99965465068817 0.02627830952406 0
vn 0.94999635219574 0.3122610449791 -0.00000026605886
vn 0.94999635219574 0.31226101517677 0.00000032942023
vn 0.91574043035507 0.40177044272423 0.00000032607613
vn 0.91574132442474 0.40176844596863 0.00000043308839
vn 0.91574043035507 0.40177044272423 -0.0000003233813
vn 0.91574132442474 0.40176844596863 0.00000008150458
vn 0.91574132442474 0.40176844596863 -0.00000034978729
vn 0.9157412648201 0.40176844596863 -0.00000040259911
vn 0 0.02627830952406 -0.99965465068817
vn -0.00000034172632 0.31226101517677 -0.94999635219574
vn 0.00000026093988 0.3122610449791 -0.94999635219574
vn 0.00000032877099 0.40177044272423 -0.91574043035507
vn 0.00000034305737 0.40176844596863 -0.91574132442474
vn 0 1 0
vn -0.00000010980295 0.40176841616631 -0.91574132442474
vn 0.00000037162999 0.40176847577095 -0.9157412648201
vn -0.0000003233813 0.40177044272423 -0.91574043035507
vn -0.00000044926716 0.40176841616631 -0.91574132442474
vn nan nan nan
vn 0 1 0
vn -0.99965465068817 0.02627830952406 0
vn -0.94999635219574 0.3122610449791 0.00000026605886
vn -0.94999635219574 0.31226101517677 -0.00000032942023
vn -0.91574043035507 0.40177044272423 -0.00000032607613
vn -0.91574132442474 0.40176844596863 -0.00000043308839
vn 0 -1 0
vn -0.91574043035507 0.40177044272423 0.0000003233813
vn -0.91574132442474 0.40176844596863 -0.00000008150458
vn -0.91574132442474 0.40176844596863 0.00000034978729
vn -0.9157412648201 0.40176844596863 0.00000040259911
vn 0 1 0
vn 0 -1 0
# 44 normals

vt 0 0 0
vt 0 0.5 0
vt 1 0.5 0
vt 1 0 0
vt 0.37568178772926 0.63832372426987 0
vt 0.40062493085861 0.52819740772247 0
vt 0 1 0
vt 0.59937506914139 0.52819740772247 0
vt 0.62431824207306 0.63832372426987 0
vt 1 1 0
# 10 texture coordinates

o Cubo
usemtl default
f 4/4/1 5/3/3 2/2/2 1/1/1
f 2/2/2 16/6/5 15/5/4
f 14/8/7 16/6/5 2/2/2 5/3/3
f 3/7/8 2/2/2 15/5/4
f 3/7/8 15/5/4 13/9/10
f 13/9/10 14/8/7 5/3/3
f 13/9/10 5/3/3 6/10/11 3/7/8
f 7/4/12 8/3/14 5/2/13 4/1/12
f 17/9/16 18/8/15 8/3/14
f 20/6/17 5/2/13 8/3/14 18/8/15
f 17/9/16 8/3/14 9/10/18
f 19/5/19 17/9/16 9/10/18
f 5/2/13 20/6/17 19/5/19
f 19/5/19 9/10/18 6/7/20 5/2/13
f 10/4/21 11/3/23 8/2/22 7/1/21
f 11/3/23 23/9/25 24/8/24
f 23/9/25 11/3/23 12/10/28 9/7/27
f 8/2/22 11/3/23 24/8/24 22/6/29
f 21/5/30 23/9/25 9/7/27
f 8/2/22 22/6/29 21/5/30
f 21/5/30 9/7/27 8/2/22
f 1/4/33 2/3/35 11/2/34 10/1/33
f 27/9/37 28/8/36 2/3/35
f 26/6/39 11/2/34 2/3/35 28/8/36
f 27/9/37 2/3/35 3/10/40
f 25/5/41 27/9/37 3/10/40
f 11/2/34 26/6/39 25/5/41
f 25/5/41 3/10/40 12/7/42 11/2/34
f 6/4/43 9/10/43 12/7/43 3/1/43
f 7/4/44 4/10/44 1/7/44 10/1/44

# 0 vertex

vn -1 0 0
vn 1 0 0
vn 0 0 1
vn 0 0 -1
# 4 normals

vt 0.19730462133884 0 0
vt 0.80269539356232 0 0
vt 0.74196273088455 1 0
vt 0.25803726911545 1 0
vt 0 0.74196273088455 0
vt 0 0.25803732872009 0
vt 1 0.25803732872009 0
vt 1 0.74196273088455 0
vt 1 0.19730460643768 0
vt 1 0.80269539356232 0
vt 0 0.80269539356232 0
vt 0 0.19730460643768 0
vt 0 0.74196273088455 0
vt 0 0.80269539356232 0
# 14 texture coordinates

o Cubo.3
usemtl default
f 13/14/45 21/13/45 22/12/45 14/11/45
f 23/14/46 15/13/46 16/12/46 24/11/46
f 21/18/44 13/17/44 15/16/44 23/15/44
f 24/22/43 16/21/43 14/20/43 22/19/43
f 17/14/47 25/13/47 26/12/47 18/11/47
f 27/14/48 19/13/48 20/12/48 28/11/48
f 25/18/44 17/17/44 19/16/44 27/23/44
f 18/20/43 26/19/43 28/22/43 20/24/43

